# xmcd
#
# Track frame offsets:
#	150
#	16264
#	27268
#	41407
#	52704
#	64877
#	75219
#	88564
#	103276
#	114704
#
# Disc length: 1684 seconds
#
# Revision: 1
# Processed by: cddbd v1.5.2PL0 Copyright (c) Steve Scherf et al.
# Submitted via: audiograbber 1.83.01
#
DISCID=6f06920a
DTITLE=The Simms Sons - Rain On Roses The Simms Sons
DYEAR=2001
DGENRE=Country
TTITLE0=Rain On Roses
TTITLE1=Louisiana Blues 
TTITLE2=An Eye For An Eye
TTITLE3=I Need Time
TTITLE4=God Bless All The Chrildren In The World
TTITLE5=My Poppa 
TTITLE6=Piese Of Mind 
TTITLE7=You Can Go Back
TTITLE8=Jesus Tok Walk For Me
TTITLE9=God Is My Hero
EXTD=
EXTT0=
EXTT1=
EXTT2=
EXTT3=
EXTT4=
EXTT5=
EXTT6=
EXTT7=
EXTT8=
EXTT9=
PLAYORDER=
